HIERARCHY
ROOT Hips
{
	OFFSET -0.001795 -0.223333 0.028219
	CHANNELS 6 Xposition Yposition Zposition Zrotation Yrotation Xrotation 
	JOINT LeftUpLeg
	{
		OFFSET 0.069520 -0.091406 -0.006815
		CHANNELS 3 Zrotation Yrotation Xrotation
		JOINT LeftLeg
		{
			OFFSET 0.034277 -0.375199 -0.004496
			CHANNELS 3 Zrotation Yrotation Xrotation
			JOINT LeftFoot
			{
				OFFSET -0.013596 -0.397961 -0.043693
				CHANNELS 3 Zrotation Yrotation Xrotation
				JOINT LeftToe
				{
					OFFSET 0.026358 -0.055791 0.119288
					CHANNELS 3 Zrotation Yrotation Xrotation
					End Site
					{
						OFFSET 0.000000 0.000000 0.000000
					}
				}
			}
		}
	}
	JOINT RightUpLeg
	{
		OFFSET -0.067670 -0.090522 -0.004320
		CHANNELS 3 Zrotation Yrotation Xrotation
		JOINT RightLeg
		{
			OFFSET -0.038290 -0.382569 -0.008850
			CHANNELS 3 Zrotation Yrotation Xrotation
			JOINT RightFoot
			{
				OFFSET 0.015774 -0.398415 -0.042312
				CHANNELS 3 Zrotation Yrotation Xrotation
				JOINT RightToe
				{
					OFFSET -0.025372 -0.048144 0.123348
					CHANNELS 3 Zrotation Yrotation Xrotation
					End Site
					{
						OFFSET 0.000000 0.000000 0.000000
					}
				}
			}
		}
	}
	JOINT Spine
	{
		OFFSET -0.002533 0.108963 -0.026696
		CHANNELS 3 Zrotation Yrotation Xrotation
		JOINT Spine1
		{
			OFFSET 0.005487 0.135180 0.001092
			CHANNELS 3 Zrotation Yrotation Xrotation
			JOINT Spine2
			{
				OFFSET 0.001457 0.052922 0.025425
				CHANNELS 3 Zrotation Yrotation Xrotation
				JOINT Neck
				{
					OFFSET -0.002778 0.213870 -0.042857
					CHANNELS 3 Zrotation Yrotation Xrotation
					JOINT Head
					{
						OFFSET 0.005152 0.064970 0.051349
						CHANNELS 3 Zrotation Yrotation Xrotation
						End Site
						{
							OFFSET 0.000000 0.000000 0.000000
						}
					}
				}
				JOINT LeftShoulder
				{
					OFFSET 0.078845 0.121749 -0.034090
					CHANNELS 3 Zrotation Yrotation Xrotation
					JOINT LeftArm
					{
						OFFSET 0.090977 0.030469 -0.008868
						CHANNELS 3 Zrotation Yrotation Xrotation
						JOINT LeftForeArm
						{
							OFFSET 0.259612 -0.012772 -0.027456
							CHANNELS 3 Zrotation Yrotation Xrotation
							JOINT LeftHand
							{
								OFFSET 0.249234 0.008986 -0.001171
								CHANNELS 3 Zrotation Yrotation Xrotation
								End Site
								{
									OFFSET 0.000000 0.000000 0.000000
								}
							}
						}
					}
				}
				JOINT RightShoulder
				{
					OFFSET -0.081759 0.118833 -0.038615
					CHANNELS 3 Zrotation Yrotation Xrotation
					JOINT RightArm
					{
						OFFSET -0.096012 0.032551 -0.009143
						CHANNELS 3 Zrotation Yrotation Xrotation
						JOINT RightForeArm
						{
							OFFSET -0.253742 -0.013329 -0.021401
							CHANNELS 3 Zrotation Yrotation Xrotation
							JOINT RightHand
							{
								OFFSET -0.255298 0.007772 -0.005559
								CHANNELS 3 Zrotation Yrotation Xrotation
								End Site
								{
									OFFSET 0.000000 0.000000 0.000000
								}
							}
						}
					}
				}
			}
		}
	}
}
MOTION
Frames: 11
Frame Time: 0.050000
0.005957 0.781837 0.067433 -0.278088 -8.799812 4.516200 17.194123 -0.441153 41.315828 -16.672311 -2.953741 -62.504781 74.349064 27.376248 119.493958 0.000000 0.000000 0.000000 -28.716179 8.327312 30.864518 17.906958 7.505825 -59.286569 -96.277772 -38.604463 112.026566 0.000000 0.000000 0.000000 5.202502 2.927400 -25.431284 3.015022 1.372488 -45.521965 2.573951 7.720890 64.708431 12.099220 3.039941 -104.022867 0.000000 0.000000 0.000000 -27.267655 -1.945385 2.505296 -18.962139 -20.127340 -5.085340 -1.149585 46.496546 -1.836186 0.000000 0.000000 0.000000 12.699105 -4.126312 -0.673860 10.975768 5.794659 -3.506749 -22.578656 -35.862157 6.154333 0.000000 0.000000 0.000000 
0.004292 0.786441 0.066940 -0.365184 -8.857597 4.475618 17.408204 -0.531311 38.798093 -16.631117 -2.560261 -58.737704 80.662294 27.148077 121.448119 0.000000 0.000000 0.000000 -28.352940 7.555762 28.018314 18.121433 7.018525 -55.415342 -98.495013 -40.657902 110.215354 0.000000 0.000000 0.000000 5.321046 2.802832 -24.389510 1.971564 1.188544 -42.864977 3.705829 7.667715 60.797852 11.929715 2.734503 -101.498090 0.000000 0.000000 0.000000 -26.981578 -1.971421 2.075341 -18.097572 -18.511278 -4.574325 -1.128656 45.534561 -2.013260 0.000000 0.000000 0.000000 13.008713 -5.482180 -1.504544 9.686431 3.971531 -2.963931 -24.254254 -33.558602 6.198710 0.000000 0.000000 0.000000 
0.003204 0.790224 0.066393 -0.484105 -8.704047 4.645540 17.565893 -0.635552 37.491804 -16.449257 -2.371271 -57.148510 81.528037 26.997915 121.896417 0.000000 0.000000 0.000000 -28.279491 7.311635 27.169890 18.370328 6.940656 -54.516631 -98.023710 -39.798109 111.097433 0.000000 0.000000 0.000000 5.251256 2.674656 -23.737007 1.409189 1.174256 -41.757871 4.166957 7.500674 58.900943 10.523924 2.838572 -100.207210 0.000000 0.000000 0.000000 -25.203209 -1.499825 1.593823 -18.498392 -17.932628 -4.413963 -0.740444 46.549582 -1.900295 0.000000 0.000000 0.000000 12.020983 -5.962023 -1.895287 9.594828 2.063520 -2.782221 -26.607899 -33.061359 6.814715 0.000000 0.000000 0.000000 
0.002558 0.793017 0.065475 -0.359785 -8.415903 3.981149 18.000830 -0.817719 35.971552 -17.046988 -2.416193 -53.867812 86.484164 26.990842 122.717190 0.000000 0.000000 0.000000 -28.467755 6.922103 25.613056 19.109920 6.727053 -51.822759 -100.174521 -41.426443 110.085722 0.000000 0.000000 0.000000 5.160713 2.442553 -22.319997 1.553931 1.025024 -39.783908 3.900518 8.466629 56.254627 12.113007 2.708708 -97.996505 0.000000 0.000000 0.000000 -23.108109 -1.074794 0.733410 -18.439725 -18.018163 -3.967174 0.368436 46.480751 -1.602925 0.000000 0.000000 0.000000 12.446192 -6.465645 -2.146800 8.477129 1.485437 -2.377705 -27.727203 -32.465825 7.082712 0.000000 0.000000 0.000000 
0.002184 0.795602 0.064305 -0.265913 -8.037891 3.190690 18.637700 -1.062537 35.534986 -17.978623 -2.694910 -51.987507 87.238912 27.160531 122.477124 0.000000 0.000000 0.000000 -28.724021 6.848572 25.538522 19.535822 6.767708 -51.505369 -100.125305 -41.564786 110.037203 0.000000 0.000000 0.000000 4.802100 2.246928 -21.454108 1.683532 1.041458 -40.346160 4.086674 8.030761 57.479156 13.822340 2.871398 -99.121989 0.000000 0.000000 0.000000 -22.784216 -1.542696 1.129415 -17.515586 -18.307078 -3.949491 -1.613634 47.068940 -2.569281 0.000000 0.000000 0.000000 12.961844 -5.900064 -1.816056 7.742562 2.189633 -2.240899 -29.123739 -34.773308 7.916470 0.000000 0.000000 0.000000 
0.001838 0.797315 0.062814 -0.260835 -7.652543 2.375910 19.119944 -1.245312 34.658865 -18.471030 -2.726252 -49.491081 90.864101 27.262334 122.769769 0.000000 0.000000 0.000000 -28.565649 6.499377 24.824129 19.570378 6.454994 -49.997217 -103.328325 -42.544103 110.325050 0.000000 0.000000 0.000000 4.721819 2.095937 -20.477360 2.055267 1.072631 -41.258847 3.708502 8.308898 58.651725 16.479802 2.980270 -99.792324 0.000000 0.000000 0.000000 -21.673291 -2.019247 1.366368 -17.243131 -19.294835 -3.927139 -0.444682 48.336332 -2.149849 0.000000 0.000000 0.000000 13.908739 -5.252497 -1.351517 6.534490 2.606466 -1.986167 -28.208989 -35.947664 7.765945 0.000000 0.000000 0.000000 
0.001341 0.798322 0.061451 -0.447633 -7.502084 1.557622 19.432640 -1.326771 34.019776 -18.396786 -2.544579 -47.256392 95.120560 27.327249 123.269814 0.000000 0.000000 0.000000 -28.772818 6.294924 23.988737 20.331836 6.298560 -47.730135 -105.585726 -44.615024 109.032128 0.000000 0.000000 0.000000 4.407702 1.916085 -19.432997 3.077262 0.907861 -40.348723 3.140280 8.875395 57.537107 19.926468 3.027650 -99.567393 0.000000 0.000000 0.000000 -21.046433 -2.541995 1.417734 -16.486190 -19.282415 -3.674767 -0.792593 46.949929 -2.389390 0.000000 0.000000 0.000000 15.167574 -4.218745 -0.728389 5.766468 2.844791 -1.778983 -27.198352 -35.651498 7.373737 0.000000 0.000000 0.000000 
0.000777 0.797350 0.060206 -0.718701 -7.575679 1.686529 19.854201 -1.424608 33.746440 -18.592258 -2.568598 -47.099005 96.637732 27.237796 123.562702 0.000000 0.000000 0.000000 -29.147759 6.477706 24.198548 21.034009 6.659453 -48.272678 -105.816727 -44.073396 109.753706 0.000000 0.000000 0.000000 4.310705 1.936427 -19.688299 4.353400 1.010425 -42.607545 2.606707 9.082426 60.478437 21.586657 3.342367 -101.632632 0.000000 0.000000 0.000000 -21.153676 -2.837704 1.810542 -16.060799 -19.941931 -3.901340 0.198618 48.005978 -1.999449 0.000000 0.000000 0.000000 16.109452 -3.117002 0.064995 5.685170 3.572603 -1.876342 -27.134566 -36.798180 7.497077 0.000000 0.000000 0.000000 
0.000265 0.797055 0.059359 -0.931814 -7.452005 1.595050 20.313164 -1.586634 33.998860 -18.631785 -2.777380 -48.750919 97.695574 24.695546 126.448316 0.000000 0.000000 0.000000 -29.415776 6.625799 24.675096 21.866796 6.873455 -48.036806 -105.215500 -44.951268 108.588598 0.000000 0.000000 0.000000 4.315502 1.923264 -19.607922 5.190423 1.069578 -43.792084 2.424536 9.505478 61.631931 21.410901 3.385030 -101.876031 0.000000 0.000000 0.000000 -20.652911 -3.167410 1.935409 -16.629908 -20.472827 -4.001653 1.171817 48.628564 -1.548724 0.000000 0.000000 0.000000 16.506918 -2.335055 0.661102 6.702817 2.902819 -2.159070 -27.403717 -36.993513 7.769573 0.000000 0.000000 0.000000 
-0.000077 0.797043 0.058661 -1.248190 -7.398554 1.500909 20.727367 -1.731705 34.434548 -18.581054 -2.969343 -50.560494 98.468134 22.777823 128.492024 0.000000 0.000000 0.000000 -29.609338 6.733690 25.001866 22.941305 7.132039 -47.525522 -104.369477 -46.622869 106.374772 0.000000 0.000000 0.000000 4.491443 2.002169 -20.008884 6.157945 0.996355 -43.852140 1.961009 10.207273 62.234237 23.072691 3.300377 -101.975983 0.000000 0.000000 0.000000 -20.654268 -3.635487 2.079855 -16.657029 -20.476734 -4.034802 0.456524 47.644309 -1.896071 0.000000 0.000000 0.000000 17.462032 -1.886062 1.163624 6.784285 2.499927 -2.222914 -26.861836 -36.845938 7.587778 0.000000 0.000000 0.000000 
-0.000182 0.796834 0.058037 -1.325713 -6.439216 1.321845 21.582418 -2.174635 33.992650 -19.286298 -3.525550 -51.514158 100.405868 20.649034 130.291273 0.000000 0.000000 0.000000 -30.040862 6.805681 25.920417 23.369782 7.129886 -47.949392 -102.098946 -46.237242 105.985966 0.000000 0.000000 0.000000 4.072810 1.861563 -19.874910 7.095455 1.157968 -46.151427 1.313919 9.750411 65.119277 24.199823 3.455898 -103.094274 0.000000 0.000000 0.000000 -20.952753 -3.394661 2.167607 -17.140312 -21.779906 -4.380982 1.136051 47.321964 -1.435595 0.000000 0.000000 0.000000 17.650856 -1.315566 1.689671 7.316331 2.572251 -2.489466 -27.585022 -37.923884 8.058624 0.000000 0.000000 0.000000 
